# AST/ASF file generated using VICON BodyLanguage
# -----------------------------------------------
:version 1.10
:name VICON
:units
  mass 1.0
  length 0.45
  angle deg
:documentation
   .ast/.asf automatically generated from VICON data using
   VICON BodyBuilder and BodyLanguage model FoxedUp or BRILLIANT.MOD
:root
   order TX TY TZ RX RY RZ
   axis XYZ
   position 0 0 0  
   orientation 0 0 0 
:bonedata
  begin
     id 1 
     name lhipjoint
     direction 0.541323 -0.757556 0.364798 
     length 2.47576 
     axis 0 0 0  XYZ
  end
  begin
     id 2 
     name lfemur
     direction 0.34202 -0.939693 0  
     length 7.46493  
     axis 0 0 20  XYZ
    dof rx ry rz
    limits (-160.0 20.0)
           (-70.0 70.0)
           (-60.0 70.0)
  end
  begin
     id 3 
     name ltibia
     direction 0.34202 -0.939693 0   
     length 7.73805   
     axis 0 0 20   XYZ
    dof rx
    limits (-10.0 170.0)
  end
  begin
     id 4 
     name lfoot
     direction 0.107174 -0.294458 0.949636   
     length 2.25864   
     axis -90 7.62852e-016 20   XYZ
    dof rx rz
    limits (-45.0 90.0)
           (-70.0 20.0)
  end
  begin
     id 5 
     name ltoes
     direction 1.53606e-011 -4.21934e-011 1   
     length 1.12451   
     axis -90 7.62852e-016 20   XYZ
    dof rx
    limits (-90.0 20.0)
  end
  begin
     id 6 
     name rhipjoint
     direction -0.524745 -0.766967 0.36933   
     length 2.44538  
     axis 0 0 0  XYZ 
  end
  begin
     id 7 
     name rfemur
     direction -0.34202 -0.939693 0   
     length 7.61604   
     axis 0 0 -20   XYZ
    dof rx ry rz
    limits (-160.0 20.0)
           (-70.0 70.0)
           (-70.0 60.0)
  end
  begin
     id 8 
     name rtibia
     direction -0.34202 -0.939693 0   
     length 7.61056   
     axis 0 0 -20   XYZ
    dof rx
    limits (-10.0 170.0)
 end
 begin
     id 9 
     name rfoot
     direction -0.12616 -0.346623 0.929482   
     length 2.46372  
     axis -90 -7.62852e-016 -20   XYZ
    dof rx rz
    limits (-45.0 90.0)
           (-20.0 70.0)
  end
  begin
     id 10 
     name rtoes
     direction -1.53531e-011 -4.22004e-011 1   
     length 1.21611   
     axis -90 -7.62852e-016 -20   XYZ
    dof rx
    limits (-90.0 20.0)
  end
  begin
     id 11 
     name lowerback
     direction -0.000778023 0.997293 -0.0735223   
     length 2.06139   
     axis 0 0 0   XYZ
    dof rx ry rz
    limits (-20.0 45.0)
           (-30.0 30.0)
           (-30.0 30.0)
  end
  begin
     id 12 
     name upperback
     direction 0.0222598 0.999722 -0.0078355   
     length 2.06383   
     axis 0 0 0   XYZ
    dof rx ry rz
    limits (-20.0 45.0)
           (-30.0 30.0)
           (-30.0 30.0)
  end
  begin
     id 13 
     name thorax
     direction 0.0219654 0.999405 0.0265994   
     length 2.07163   
     axis 0 0 0   XYZ
    dof rx ry rz
    limits (-20.0 45.0)
           (-30.0 30.0)
           (-30.0 30.0)
  end
  begin
     id 14 
     name lowerneck
     direction 0.0213282 0.988147 0.15202   
     length 1.75969   
     axis 0 0 0   XYZ
    dof rx ry rz
    limits (-20.0 45.0)
           (-30.0 30.0)
           (-30.0 30.0)
  end
  begin
     id 15 
     name upperneck
     direction -0.0546456 0.982624 -0.177379   
     length 1.79244   
     axis 0 0 0   XYZ
    dof rx ry rz
    limits (-20.0 45.0)
           (-30.0 30.0)
           (-30.0 30.0)
  end
  begin
     id 16
     name head
     direction -0.0199987 0.996855 -0.076686  
     length 1.80555  
     axis 0 0 0   XYZ
    dof rx ry rz
    limits (-20.0 45.0)
           (-30.0 30.0)
           (-30.0 30.0)
  end
  begin
     id 17 
     name lclavicle
     direction 0.929565 0.363219 -0.063096  
     length 3.55722  
     axis 0 0 0   XYZ
    dof ry rz
    limits (-20.0 10.0)
           (0.0 20.0)
  end
  begin
     id 18 
     name lhumerus
     direction 1 -4.48993e-011 -2.36203e-027   
     length 4.92785   
     axis 180 -30 -90   XYZ
    dof rx ry rz
    limits (-60.0 90.0)
           (-90.0 90.0)
           (-90.0 90.0)
  end
  begin
     id 19
     name lradius
     direction 1 -4.48947e-011 2.02997e-027   
     length 3.44052   
     axis 180 -30 -90   XYZ
    dof rx
    limits (-10.0 170.0)
  end
  begin
     id 20
     name lwrist
     direction 1 -4.48962e-011 1.45991e-027   
     length 1.72026   
     axis 1.49639e-024 90 90   XYZ
    dof ry
    limits (-180.0 0.0)
 end
  begin
     id 21 
     name lhand
     direction 1 -4.48984e-011 2.91906e-027   
     length 0.654326   
     axis -1.863e-015 90 90   XYZ
    dof rx rz
    limits (-90.0 90.0)
           (-45.0 45.0)
  end
  begin
     id 22 
     name lfingers
     direction 1 -4.48961e-011 5.83968e-027   
     length 0.527534   
     axis -3.72598e-015 90 90   XYZ
    dof rx
    limits (0.0 90.0)
  end
  begin
     id 23
     name lthumb
     direction 0.707107 -6.34963e-011 0.707107   
     length 0.757437   
     axis -90 45 -6.68868e-015   XYZ
    dof rx rz
    limits (-45.0 45.0)
           (-45.0 45.0)
  end
  begin
     id 24 
     name rclavicle
     direction -0.902944 0.422599 -0.0781198   
     length 3.54432  
     axis 0 0 0   XYZ 
    dof ry rz
    limits (-10.0 20.0)
           (-20.0 0.0)
  end
  begin
     id 25 
     name rhumerus
     direction -1 -4.48953e-011 -4.75835e-028  
     length 5.09181   
     axis 180 30 90   XYZ
    dof rx ry rz
    limits (-90.0 60.0)
           (-90.0 90.0)
           (-90.0 90.0)
  end
  begin
     id 26 
     name rradius
     direction -1 -4.48986e-011 -3.25889e-027   
     length 3.49865   
     axis 180 30 90   XYZ
    dof rx
    limits (-10.0 170.0)
  end
  begin
     id 27 
     name rwrist
     direction -1 -4.48963e-011 1.45989e-027   
     length 1.74933   
     axis 1.49639e-024 -90 -90   XYZ
    dof ry
    limits (-180.0 0.0)
  end
  begin
     id 28
     name rhand
     direction -1 -4.49003e-011 2.91844e-027   
     length 0.66641   
     axis -1.863e-015 -90 -90   XYZ
    dof rx rz
    limits (-90.0 90.0)
           (-45.0 45.0)
  end
  begin
     id 29
     name rfingers
     direction -1 -4.48973e-011 5.83886e-027   
     length 0.537277   
     axis -3.72598e-015 -90 -90   XYZ
    dof rx
    limits (0.0 90.0)
  end
  begin
     id 30
     name rthumb
     direction -0.707107 -6.34976e-011 0.707107   
     length 0.771425   
     axis -90 -45 6.68868e-015   XYZ
    dof rx rz
    limits (-45.0 45.0)
           (-45.0 45.0)
  end
:hierarchy
  begin
    root lhipjoint rhipjoint lowerback
    lhipjoint lfemur
    lfemur ltibia
    ltibia lfoot
    lfoot ltoes
    rhipjoint rfemur
    rfemur rtibia
    rtibia rfoot
    rfoot rtoes
    lowerback upperback
    upperback thorax
    thorax lowerneck lclavicle rclavicle
    lowerneck upperneck
    upperneck head
    lclavicle lhumerus
    lhumerus lradius
    lradius lwrist
    lwrist lhand lthumb
    lhand lfingers
    rclavicle rhumerus
    rhumerus rradius
    rradius rwrist
    rwrist rhand rthumb
    rhand rfingers
  end

#!OML:ASF H:\LiuWeirdWalks\Patient Classification 1\Patient 1\Session 1\male.ASF
:FULLY-SPECIFIED
:DEGREES
238
root 0.527475 18.0548 -30.5458 4.81145 4.96663 7.5108
lowerback 4.40655 0.299416 6.80506
upperback -0.854827 1.15282 10.2551
thorax -3.47956 0.562665 6.89471
lowerneck -30.0796 0.679712 17.9029
upperneck 34.6457 0.0699282 -21.7943
head 18.6429 -0.520485 -14.6777
rclavicle -7.15625e-015 2.8625e-014
rhumerus -33.1407 -18.1788 -50.7933
rradius 33.0877
rwrist -14.3827
rhand -17.767 -4.38242
rfingers 7.12502
rthumb 8.49521 -34.1915
lclavicle -7.15625e-015 2.8625e-014
lhumerus -35.066 -14.1746 98.0547
lradius 42.2215
lwrist 2.39048
lhand -4.44754 -5.51569
lfingers 7.12502
lthumb 21.3241 23.3311
rfemur -11.3311 1.02619 7.21171
rtibia 30.3448
rfoot -13.4908 -21.7006
rtoes -4.23401
lfemur -5.11743 0.860856 -27.6775
ltibia 14.1945
lfoot -5.20168 12.2354
ltoes -13.6061
239
root 0.524383 18.0542 -30.5457 4.79565 5.01485 7.48652
lowerback 4.41809 0.104334 6.65418
upperback -0.833379 0.891642 10.4755
thorax -3.45224 0.43922 7.24402
lowerneck -29.8231 0.931847 17.8784
upperneck 34.3984 0.609336 -22.0333
head 18.6455 -0.333439 -14.6603
rclavicle -5.1684e-015 -7.63333e-014
rhumerus -32.5378 -17.4086 -50.9553
rradius 33.1486
rwrist -14.5209
rhand -17.7675 -4.38169
rfingers 7.12502
rthumb 8.49468 -34.1908
lclavicle -5.1684e-015 -7.63333e-014
lhumerus -35.0679 -13.1928 98.0088
lradius 41.9649
lwrist 2.25829
lhand -4.52577 -5.52638
lfingers 7.12502
lthumb 21.249 23.3289
rfemur -11.3015 1.00952 7.25595
rtibia 30.3456
rfoot -13.5058 -21.7275
rtoes -4.21545
lfemur -5.11688 0.869624 -27.6364
ltibia 14.2245
lfoot -5.23328 12.2005
ltoes -13.317
240
root 0.521198 18.0537 -30.5455 4.77851 5.06662 7.45836
lowerback 4.43962 0.00443177 6.58249
upperback -0.830863 0.761138 10.5792
thorax -3.45474 0.377257 7.41031
lowerneck -29.6724 1.09238 17.94
upperneck 34.2553 0.912991 -22.2
head 18.648 -0.219107 -14.6871
rclavicle 9.54166e-015 -8.90555e-014
rhumerus -32.217 -16.9824 -51.0535
rradius 33.2168
rwrist -14.564
rhand -17.728 -4.31534
rfingers 7.12502
rthumb 8.53282 -34.1229
lclavicle 9.54166e-015 -8.90555e-014
lhumerus -35.1015 -12.6194 97.929
lradius 41.6976
lwrist 2.09366
lhand -4.63337 -5.55234
lfingers 7.12502
lthumb 21.1456 23.3145
rfemur -11.2692 0.995091 7.30613
rtibia 30.3446
rfoot -13.5155 -21.7612
rtoes -4.19774
lfemur -5.11857 0.88304 -27.5895
ltibia 14.2604
lfoot -5.26917 12.1573
ltoes -13.2307
241
root 0.517898 18.0533 -30.5455 4.76133 5.11458 7.41807
lowerback 4.47066 -0.00473522 6.58713
upperback -0.835871 0.754523 10.5828
thorax -3.47722 0.373941 7.4127
lowerneck -29.6519 1.09563 17.9172
upperneck 34.2315 0.933732 -22.1989
head 18.6343 -0.215823 -14.6688
rclavicle -2.34566e-014 -1.87653e-013
rhumerus -32.1267 -16.88 -51.1061
rradius 33.2977
rwrist -14.5698
rhand -17.6974 -4.25475
rfingers 7.12502
rthumb 8.56239 -34.0611
lclavicle -2.34566e-014 -1.87653e-013
lhumerus -35.1349 -12.4202 97.8185
lradius 41.4029
lwrist 1.87098
lhand -4.81023 -5.63223
lfingers 7.12502
lthumb 20.9757 23.2535
rfemur -11.2391 0.99093 7.37104
rtibia 30.3408
rfoot -13.5192 -21.8009
rtoes -4.18037
lfemur -5.1259 0.895309 -27.5285
ltibia 14.3032
lfoot -5.30572 12.1186
ltoes -11.2151
242
root 0.514497 18.0533 -30.5457 4.74967 5.16008 7.37109
lowerback 4.48914 -0.0907354 6.54834
upperback -0.821879 0.642123 10.6789
thorax -3.46608 0.320196 7.55041
lowerneck -29.5605 1.24256 17.9482
upperneck 34.1172 1.21215 -22.3358
head 18.6616 -0.110661 -14.6882
rclavicle 1.39149e-014 -5.40694e-014
rhumerus -31.8078 -16.5322 -51.1894
rradius 33.3383
rwrist -14.5985
rhand -17.6633 -4.20635
rfingers 7.12502
rthumb 8.59524 -34.0114
lclavicle 1.39149e-014 -5.40694e-014
lhumerus -35.1255 -11.8711 97.7179
lradius 41.1367
lwrist 1.69313
lhand -4.89249 -5.57647
lfingers 7.12502
lthumb 20.8967 23.318
rfemur -11.2169 0.994638 7.44402
rtibia 30.3358
rfoot -13.5208 -21.8464
rtoes -4.16263
lfemur -5.14134 0.901235 -27.4599
ltibia 14.3465
lfoot -5.34212 12.0868
ltoes -9.78099
243
root 0.511043 18.0533 -30.546 4.74027 5.20224 7.32242
lowerback 4.50374 -0.15122 6.52525
upperback -0.80554 0.562729 10.7475
thorax -3.4519 0.282142 7.64603
lowerneck -29.514 1.34518 17.9462
upperneck 34.0499 1.41305 -22.4192
head 18.696 -0.0349407 -14.6933
rclavicle 1.78906e-014 -9.22361e-014
rhumerus -31.5442 -16.2895 -51.2562
rradius 33.3677
rwrist -14.5987
rhand -17.632 -4.15366
rfingers 7.12502
rthumb 8.62549 -33.9575
lclavicle 1.78906e-014 -9.22361e-014
lhumerus -35.1072 -11.4237 97.6052
lradius 40.8701
lwrist 1.54941
lhand -4.97147 -5.57251
lfingers 7.12502
lthumb 20.8208 23.3303
rfemur -11.1997 1.00083 7.51857
rtibia 30.3316
rfoot -13.5216 -21.8902
rtoes -4.14312
lfemur -5.15821 0.902438 -27.3898
ltibia 14.3866
lfoot -5.3747 12.0609
ltoes -8.4874
